<svg width="21" height="20" viewBox="0 0 21 20" fill="none" 
	xmlns="http://www.w3.org/2000/svg">
	<path fill-rule="evenodd" clip-rule="evenodd" d="M0.5 0C0.223858 0 0 0.223858 0 0.5V2.97677C0 3.25291 0.223858 3.47677 0.500001 3.47677H20.3606C20.6368 3.47677 20.8606 3.25291 20.8606 2.97677V0.5C20.8606 0.223858 20.6368 0 20.3606 0H0.5ZM0.5 11.4883C0.223858 11.4883 0 11.2644 0 10.9883V8.51152C0 8.23537 0.223858 8.01152 0.500001 8.01152H20.3606C20.6368 8.01152 20.8606 8.23537 20.8606 8.51152V10.9883C20.8606 11.2644 20.6368 11.4883 20.3606 11.4883H0.5ZM0.5 19.5C0.223858 19.5 0 19.2762 0 19V16.5233C0 16.2471 0.223858 16.0233 0.500001 16.0233H20.3606C20.6368 16.0233 20.8606 16.2471 20.8606 16.5233V19C20.8606 19.2762 20.6368 19.5 20.3606 19.5H0.5Z" fill="white"/>
</svg>