<svg width="19" height="19" viewBox="0 0 19 19" fill="none" 
	xmlns="http://www.w3.org/2000/svg">
	<path fill-rule="evenodd" clip-rule="evenodd" d="M8.50031 6.14657C8.97001 5.51359 9.13844 4.84649 8.60722 4.25764C7.41512 2.58956 6.6134 1.55802 6.11052 1.06126C5.15448 0.116852 3.58179 0.244598 2.75379 1.06045C2.30906 1.49866 2.15851 1.64914 1.70187 2.11295C-0.841664 4.65785 0.709514 10.0377 4.83311 14.1653C8.95577 18.292 14.3351 19.844 16.884 17.2938C17.3053 16.8875 17.6621 16.5306 17.9435 16.2332C18.7549 15.3756 18.8781 13.8722 17.9381 12.8956C17.4562 12.3949 16.4726 11.6319 14.7343 10.3885C14.2019 9.91242 13.5707 10.0156 12.992 10.3953C12.7136 10.5779 12.511 10.7626 12.1285 11.1456L11.4338 11.8406C11.3423 11.9321 10.0999 11.31 8.89395 10.1028C7.6873 8.89497 7.06555 7.65253 7.15662 7.56147L7.85176 6.86595C7.97312 6.74447 8.03115 6.68565 8.10556 6.60744C8.26059 6.44451 8.38895 6.29664 8.50031 6.14657ZM12.7149 13.1229L13.4097 12.4277C13.6721 12.1651 14.077 12.1478 14.3772 12.3662C15.5901 13.2485 16.3146 13.823 16.6325 14.1534C16.8488 14.3781 16.8152 14.7882 16.6272 14.9869C16.367 15.2619 16.029 15.6001 15.6142 16.0002C13.966 17.6491 9.62366 16.3963 6.11452 12.8837C2.60428 9.36998 1.35206 5.02701 2.9878 3.39037C3.4426 2.92846 3.58669 2.78444 4.02507 2.35249C4.18943 2.19053 4.63716 2.15417 4.8371 2.35168C5.20167 2.71182 5.85974 3.5482 6.8174 4.87333C6.92484 5.02201 6.91926 5.22452 6.79282 5.35741C6.7318 5.42154 6.68097 5.47307 6.56984 5.5843L5.87539 6.27914C4.69399 7.46044 5.70011 9.47097 7.61204 11.3848C9.52265 13.2973 11.5339 14.3045 12.7149 13.1229Z" fill="white"/>
</svg>