<svg width="38" height="39" viewBox="0 0 38 39" fill="none" xmlns="http://www.w3.org/2000/svg">
<circle cx="19.0841" cy="19.3673" r="18.0431" stroke="#8273F1" stroke-width="1.5"/>
<path d="M19.6138 14.6057C16.6997 14.6057 14.3369 16.9618 14.3369 19.8678C14.3369 22.7738 16.6997 25.1299 19.6138 25.1299C22.528 25.1299 24.8908 22.7738 24.8908 19.8678C24.8908 16.9618 22.528 14.6057 19.6138 14.6057ZM19.6138 23.1566C17.7959 23.1566 16.3158 21.6806 16.3158 19.8678C16.3158 18.0537 17.7959 16.579 19.6138 16.579C21.4318 16.579 22.9119 18.0537 22.9119 19.8678C22.9119 21.6806 21.4318 23.1566 19.6138 23.1566Z" fill="#8273F1"/>
<path d="M23.5721 9.34375H15.6567C12.0143 9.34375 9.06055 12.2892 9.06055 15.9213V23.8144C9.06055 27.4466 12.0143 30.392 15.6567 30.392H23.5721C27.2145 30.392 30.1683 27.4466 30.1683 23.8144V15.9213C30.1683 12.2892 27.2145 9.34375 23.5721 9.34375ZM28.1894 23.8144C28.1894 26.3534 26.1182 28.4187 23.5721 28.4187H15.6567C13.1106 28.4187 11.0394 26.3534 11.0394 23.8144V15.9213C11.0394 13.3824 13.1106 11.317 15.6567 11.317H23.5721C26.1182 11.317 28.1894 13.3824 28.1894 15.9213V23.8144Z" fill="#8273F1"/>
<path d="M25.2871 14.9121C25.6755 14.9121 25.9903 14.5982 25.9903 14.2109C25.9903 13.8237 25.6755 13.5098 25.2871 13.5098C24.8988 13.5098 24.584 13.8237 24.584 14.2109C24.584 14.5982 24.8988 14.9121 25.2871 14.9121Z" fill="#8273F1"/>
</svg>
