<svg width="100" height="28" viewBox="0 0 100 28" fill="none" xmlns="http://www.w3.org/2000/svg">
<path d="M45.5795 17.8421L45.5588 7.28686L40.3226 16.0829H39.3705L34.1343 7.34895V17.8421H32.1475V3.35454H33.8446L39.8879 13.5372L45.8485 3.35454H47.5456L47.5663 17.8421H45.5795Z" fill="#1F2125"/>
<path d="M58.6612 18.0076C57.1987 18.0076 55.881 17.6903 54.7082 17.0556C53.5354 16.4071 52.611 15.5172 51.9349 14.3858C51.2726 13.2543 50.9415 11.9919 50.9415 10.5983C50.9415 9.20474 51.2726 7.94225 51.9349 6.81085C52.611 5.67944 53.5354 4.79639 54.7082 4.1617C55.881 3.51321 57.1987 3.18896 58.6612 3.18896C60.11 3.18896 61.4208 3.51321 62.5936 4.1617C63.7664 4.79639 64.6839 5.67944 65.3462 6.81085C66.0085 7.92845 66.3396 9.19094 66.3396 10.5983C66.3396 12.0057 66.0085 13.275 65.3462 14.4064C64.6839 15.5241 63.7664 16.4071 62.5936 17.0556C61.4208 17.6903 60.11 18.0076 58.6612 18.0076ZM58.6612 16.1656C59.7237 16.1656 60.6757 15.9242 61.5174 15.4413C62.3728 14.9584 63.042 14.2961 63.5249 13.4544C64.0216 12.599 64.27 11.6469 64.27 10.5983C64.27 9.54968 64.0216 8.60454 63.5249 7.76288C63.042 6.90743 62.3728 6.23824 61.5174 5.75533C60.6757 5.27241 59.7237 5.03095 58.6612 5.03095C57.5988 5.03095 56.633 5.27241 55.7637 5.75533C54.9083 6.23824 54.2322 6.90743 53.7355 7.76288C53.2526 8.60454 53.0111 9.54968 53.0111 10.5983C53.0111 11.6469 53.2526 12.599 53.7355 13.4544C54.2322 14.2961 54.9083 14.9584 55.7637 15.4413C56.633 15.9242 57.5988 16.1656 58.6612 16.1656Z" fill="#1F2125"/>
<path d="M76.25 18.0076C74.7875 18.0076 73.4698 17.6903 72.297 17.0556C71.1242 16.4071 70.1997 15.5172 69.5237 14.3858C68.8614 13.2543 68.5302 11.9919 68.5302 10.5983C68.5302 9.20474 68.8614 7.94225 69.5237 6.81085C70.1997 5.67944 71.1242 4.79639 72.297 4.1617C73.4698 3.51321 74.7875 3.18896 76.25 3.18896C77.6988 3.18896 79.0095 3.51321 80.1823 4.1617C81.3551 4.79639 82.2727 5.67944 82.935 6.81085C83.5972 7.92845 83.9284 9.19094 83.9284 10.5983C83.9284 12.0057 83.5972 13.275 82.935 14.4064C82.2727 15.5241 81.3551 16.4071 80.1823 17.0556C79.0095 17.6903 77.6988 18.0076 76.25 18.0076ZM76.25 16.1656C77.3124 16.1656 78.2645 15.9242 79.1061 15.4413C79.9616 14.9584 80.6308 14.2961 81.1137 13.4544C81.6104 12.599 81.8587 11.6469 81.8587 10.5983C81.8587 9.54968 81.6104 8.60454 81.1137 7.76288C80.6308 6.90743 79.9616 6.23824 79.1061 5.75533C78.2645 5.27241 77.3124 5.03095 76.25 5.03095C75.1876 5.03095 74.2218 5.27241 73.3525 5.75533C72.497 6.23824 71.821 6.90743 71.3242 7.76288C70.8413 8.60454 70.5999 9.54968 70.5999 10.5983C70.5999 11.6469 70.8413 12.599 71.3242 13.4544C71.821 14.2961 72.497 14.9584 73.3525 15.4413C74.2218 15.9242 75.1876 16.1656 76.25 16.1656Z" fill="#1F2125"/>
<path d="M99.7579 3.35454V17.8421H98.0608L89.3683 7.03851V17.8421H87.2987V3.35454H88.9958L97.6883 14.1581V3.35454H99.7579Z" fill="#1F2125"/>
<path d="M10.3782 4.95288L10.3974 4.93667L11.2949 4.17694L11.314 4.16074L11.334 4.14553C13.31 2.63605 15.6336 1.75316 18.0985 1.56411C16.8544 1.19217 15.5539 1 14.2441 1C6.92578 1 1 6.84892 1 14C1 16.3352 1.64092 18.627 2.85389 20.6276L2.8539 20.6276C4.02862 22.5652 5.70441 24.1814 7.70106 25.2999L8.63167 25.7742C10.395 26.5875 12.281 27 14.2441 27C15.5544 27 16.8553 26.8077 18.0999 26.4355C11.5856 25.9299 6.41702 20.562 6.41702 14C6.41702 12.2664 6.77439 10.5841 7.47889 9.00519L10.3782 4.95288ZM10.3782 4.95288L10.3599 4.97002M10.3782 4.95288L10.3599 4.97002M10.3599 4.97002C9.12989 6.12189 8.15919 7.48022 7.47893 9.00512L10.3599 4.97002Z" stroke="#1F2125" stroke-width="2"/>
<path d="M22.1884 14.481C22.1146 14.481 22.0406 14.4636 21.9727 14.4281L19.5844 13.1828L17.1961 14.4281C17.0387 14.5102 16.8484 14.4959 16.7051 14.3912C16.5618 14.2866 16.4902 14.1097 16.5205 13.9348L16.9757 11.3022L15.0466 9.43712C14.9186 9.31333 14.8722 9.12746 14.9269 8.95805C14.9817 8.78857 15.1281 8.66507 15.3044 8.63969L17.9736 8.25495L19.1666 5.85742C19.2455 5.69886 19.4073 5.59863 19.5844 5.59863C19.7615 5.59863 19.9233 5.69886 20.0022 5.85742L21.1952 8.25495L23.8645 8.63969C24.0407 8.66507 24.1871 8.78857 24.242 8.95805C24.2967 9.12752 24.2503 9.31338 24.1222 9.43712L22.1931 11.3022L22.6483 13.9348C22.6786 14.1097 22.607 14.2866 22.4637 14.3912C22.3822 14.4507 22.2855 14.481 22.1884 14.481Z" fill="#1F2125"/>
</svg>
