<svg width="143" height="43" viewBox="0 0 143 43" fill="none" xmlns="http://www.w3.org/2000/svg">
<path d="M63.866 28L63.837 13.21L56.5 25.535H55.166L47.829 13.297V28H45.045V7.7H47.423L55.891 21.968L64.243 7.7H66.621L66.65 28H63.866ZM82.1963 28.232C80.1469 28.232 78.3006 27.7873 76.6573 26.898C75.0139 25.9893 73.7186 24.7423 72.7713 23.157C71.8433 21.5717 71.3793 19.8027 71.3793 17.85C71.3793 15.8973 71.8433 14.1283 72.7713 12.543C73.7186 10.9577 75.0139 9.72033 76.6573 8.831C78.3006 7.92233 80.1469 7.468 82.1963 7.468C84.2263 7.468 86.0629 7.92233 87.7063 8.831C89.3496 9.72033 90.6353 10.9577 91.5633 12.543C92.4913 14.109 92.9553 15.878 92.9553 17.85C92.9553 19.822 92.4913 21.6007 91.5633 23.186C90.6353 24.752 89.3496 25.9893 87.7063 26.898C86.0629 27.7873 84.2263 28.232 82.1963 28.232ZM82.1963 25.651C83.6849 25.651 85.0189 25.3127 86.1983 24.636C87.3969 23.9593 88.3346 23.0313 89.0113 21.852C89.7073 20.6533 90.0553 19.3193 90.0553 17.85C90.0553 16.3807 89.7073 15.0563 89.0113 13.877C88.3346 12.6783 87.3969 11.7407 86.1983 11.064C85.0189 10.3873 83.6849 10.049 82.1963 10.049C80.7076 10.049 79.3543 10.3873 78.1363 11.064C76.9376 11.7407 75.9903 12.6783 75.2943 13.877C74.6176 15.0563 74.2793 16.3807 74.2793 17.85C74.2793 19.3193 74.6176 20.6533 75.2943 21.852C75.9903 23.0313 76.9376 23.9593 78.1363 24.636C79.3543 25.3127 80.7076 25.651 82.1963 25.651ZM106.842 28.232C104.792 28.232 102.946 27.7873 101.303 26.898C99.6594 25.9893 98.3641 24.7423 97.4167 23.157C96.4887 21.5717 96.0247 19.8027 96.0247 17.85C96.0247 15.8973 96.4887 14.1283 97.4167 12.543C98.3641 10.9577 99.6594 9.72033 101.303 8.831C102.946 7.92233 104.792 7.468 106.842 7.468C108.872 7.468 110.708 7.92233 112.352 8.831C113.995 9.72033 115.281 10.9577 116.209 12.543C117.137 14.109 117.601 15.878 117.601 17.85C117.601 19.822 117.137 21.6007 116.209 23.186C115.281 24.752 113.995 25.9893 112.352 26.898C110.708 27.7873 108.872 28.232 106.842 28.232ZM106.842 25.651C108.33 25.651 109.664 25.3127 110.844 24.636C112.042 23.9593 112.98 23.0313 113.657 21.852C114.353 20.6533 114.701 19.3193 114.701 17.85C114.701 16.3807 114.353 15.0563 113.657 13.877C112.98 12.6783 112.042 11.7407 110.844 11.064C109.664 10.3873 108.33 10.049 106.842 10.049C105.353 10.049 104 10.3873 102.782 11.064C101.583 11.7407 100.636 12.6783 99.9397 13.877C99.2631 15.0563 98.9247 16.3807 98.9247 17.85C98.9247 19.3193 99.2631 20.6533 99.9397 21.852C100.636 23.0313 101.583 23.9593 102.782 24.636C104 25.3127 105.353 25.651 106.842 25.651ZM139.781 7.7V28H137.403L125.223 12.862V28H122.323V7.7H124.701L136.881 22.838V7.7H139.781Z" fill="#1F2125"/>
<path d="M14.7906 10.2569C13.1056 11.8348 11.777 13.6943 10.8459 15.7816C9.88175 17.9424 9.39277 20.2438 9.39277 22.6168C9.39277 32.052 17.2061 39.6949 26.7725 39.6949C27.0276 39.6949 27.2832 39.6894 27.5386 39.6783C25.1588 40.6994 22.5718 41.2338 19.9589 41.2338C17.1481 41.2338 14.4455 40.6423 11.9195 39.4759L10.6016 38.8042C7.74093 37.2033 5.33944 34.8884 3.65583 32.1115L3.65582 32.1115C1.91823 29.2456 1 25.9625 1 22.6169C1 12.3687 9.48943 4 19.9589 4C22.5719 4 25.1589 4.53438 27.5386 5.55554C27.2831 5.54449 27.0275 5.53894 26.7723 5.53894C22.8836 5.53894 19.1979 6.78003 16.1247 9.12757L16.1048 9.14278L16.0857 9.15898L14.8281 10.2235L14.8089 10.2397L14.7906 10.2569ZM29.2384 6.38789C29.2382 6.38778 29.238 6.38768 29.2378 6.38757C29.238 6.38767 29.2382 6.38776 29.2384 6.38786L29.2384 6.38789Z" stroke="#1F2125" stroke-width="2"/>
<path d="M31.0913 23.2912C30.9879 23.2912 30.8842 23.2668 30.789 23.2172L27.4426 21.4723L24.0961 23.2172C23.8755 23.3321 23.6089 23.3122 23.4081 23.1654C23.2072 23.0188 23.1069 22.7709 23.1494 22.5259L23.7872 18.8371L21.0842 16.2237C20.9048 16.0503 20.8398 15.7898 20.9164 15.5524C20.9932 15.315 21.1984 15.1419 21.4454 15.1064L25.1855 14.5673L26.8571 11.2078C26.9677 10.9857 27.1944 10.8452 27.4426 10.8452C27.6907 10.8452 27.9175 10.9857 28.028 11.2078L29.6996 14.5673L33.4398 15.1064C33.6867 15.1419 33.8919 15.315 33.9688 15.5524C34.0454 15.7899 33.9804 16.0503 33.801 16.2237L31.0979 18.8371L31.7357 22.5259C31.7782 22.7709 31.6779 23.0188 31.477 23.1654C31.3628 23.2487 31.2274 23.2912 31.0913 23.2912Z" fill="#1F2125"/>
</svg>