<svg width="165" height="51" viewBox="0 0 165 51" fill="none" xmlns="http://www.w3.org/2000/svg">
<path d="M79.0934 28.0233L79.0606 11.2868L70.758 25.2338H69.2484L60.9458 11.3852V28.0233H57.7954V5.05159H60.4864L70.0688 21.1974L79.52 5.05159H82.211L82.2438 28.0233H79.0934Z" fill="black"/>
<path d="M99.8361 28.2858C97.5171 28.2858 95.4277 27.7826 93.5681 26.7762C91.7085 25.748 90.2427 24.3369 89.1707 22.5429C88.1206 20.7489 87.5955 18.7471 87.5955 16.5374C87.5955 14.3278 88.1206 12.326 89.1707 10.532C90.2427 8.738 91.7085 7.33782 93.5681 6.33145C95.4277 5.30319 97.5171 4.78906 99.8361 4.78906C102.133 4.78906 104.212 5.30319 106.071 6.33145C107.931 7.33782 109.386 8.738 110.436 10.532C111.486 12.3041 112.011 14.3059 112.011 16.5374C112.011 18.769 111.486 20.7817 110.436 22.5757C109.386 24.3478 107.931 25.748 106.071 26.7762C104.212 27.7826 102.133 28.2858 99.8361 28.2858ZM99.8361 25.3651C101.521 25.3651 103.03 24.9822 104.365 24.2165C105.721 23.4508 106.782 22.4007 107.548 21.0661C108.336 19.7097 108.729 18.2001 108.729 16.5374C108.729 14.8747 108.336 13.3761 107.548 12.0415C106.782 10.6851 105.721 9.62405 104.365 8.85833C103.03 8.09261 101.521 7.70974 99.8361 7.70974C98.1515 7.70974 96.6201 8.09261 95.2418 8.85833C93.8854 9.62405 92.8133 10.6851 92.0257 12.0415C91.26 13.3761 90.8772 14.8747 90.8772 16.5374C90.8772 18.2001 91.26 19.7097 92.0257 21.0661C92.8133 22.4007 93.8854 23.4508 95.2418 24.2165C96.6201 24.9822 98.1515 25.3651 99.8361 25.3651Z" fill="black"/>
<path d="M127.725 28.2858C125.406 28.2858 123.317 27.7826 121.457 26.7762C119.598 25.748 118.132 24.3369 117.06 22.5429C116.01 20.7489 115.485 18.7471 115.485 16.5374C115.485 14.3278 116.01 12.326 117.06 10.532C118.132 8.738 119.598 7.33782 121.457 6.33145C123.317 5.30319 125.406 4.78906 127.725 4.78906C130.022 4.78906 132.101 5.30319 133.96 6.33145C135.82 7.33782 137.275 8.738 138.325 10.532C139.375 12.3041 139.9 14.3059 139.9 16.5374C139.9 18.769 139.375 20.7817 138.325 22.5757C137.275 24.3478 135.82 25.748 133.96 26.7762C132.101 27.7826 130.022 28.2858 127.725 28.2858ZM127.725 25.3651C129.41 25.3651 130.919 24.9822 132.254 24.2165C133.61 23.4508 134.671 22.4007 135.437 21.0661C136.225 19.7097 136.618 18.2001 136.618 16.5374C136.618 14.8747 136.225 13.3761 135.437 12.0415C134.671 10.6851 133.61 9.62405 132.254 8.85833C130.919 8.09261 129.41 7.70974 127.725 7.70974C126.041 7.70974 124.509 8.09261 123.131 8.85833C121.774 9.62405 120.702 10.6851 119.915 12.0415C119.149 13.3761 118.766 14.8747 118.766 16.5374C118.766 18.2001 119.149 19.7097 119.915 21.0661C120.702 22.4007 121.774 23.4508 123.131 24.2165C124.509 24.9822 126.041 25.3651 127.725 25.3651Z" fill="black"/>
<path d="M165 5.05159V28.0233H162.309L148.526 10.893V28.0233H145.244V5.05159H147.935L161.718 22.1819V5.05159H165Z" fill="black"/>
<path d="M19.3408 9.60541C17.1886 11.6209 15.4925 13.995 14.3037 16.6597L14.3037 16.6598C13.0729 19.4181 12.4488 22.3555 12.4488 25.3852C12.4488 37.4273 22.4228 47.1911 34.6451 47.1911C35.5053 47.1911 36.3697 47.1417 37.2251 47.044C33.7181 48.8295 29.7957 49.7705 25.8278 49.7705C22.1464 49.7705 18.6053 48.9952 15.296 47.4663L13.5805 46.5919C9.83242 44.4956 6.68563 41.4632 4.47938 37.8242L3.62712 38.3409L4.47937 37.8242C2.20302 34.0698 1 29.7685 1 25.3853C1 11.9564 12.1222 1 25.8278 1C29.7959 1 33.7182 1.94111 37.225 3.72666C36.3696 3.62895 35.5051 3.57958 34.6448 3.57958C29.6766 3.57958 24.97 5.16468 21.0448 8.16307L21.0248 8.17829L21.0057 8.19448L19.3783 9.57205L19.3591 9.58826L19.3408 9.60541Z" stroke="black" stroke-width="2"/>
<path d="M40.2332 26.2581C40.0993 26.2581 39.9652 26.2265 39.842 26.1623L35.5115 23.9043L31.181 26.1623C30.8955 26.311 30.5506 26.2852 30.2907 26.0953C30.0308 25.9056 29.901 25.5848 29.9559 25.2677L30.7813 20.4942L27.2834 17.1124C27.0514 16.8879 26.9672 16.5509 27.0664 16.2437C27.1657 15.9365 27.4312 15.7125 27.7509 15.6665L32.5908 14.9689L34.7539 10.6216C34.897 10.3341 35.1904 10.1523 35.5115 10.1523C35.8327 10.1523 36.1261 10.3341 36.2691 10.6216L38.4322 14.9689L43.2722 15.6665C43.5918 15.7125 43.8573 15.9365 43.9568 16.2437C44.056 16.551 43.9719 16.8881 43.7397 17.1124L40.2417 20.4942L41.0671 25.2677C41.122 25.5848 40.9922 25.9056 40.7323 26.0953C40.5846 26.2031 40.4093 26.2581 40.2332 26.2581Z" fill="black"/>
</svg>
